<svg xmlns="http://www.w3.org/2000/svg" xmlns:xlink="http://www.w3.org/1999/xlink" viewBox="0 0 157 140.39"><defs><style>.cls-1{fill:url(#linear-gradient);}.cls-2{fill:url(#linear-gradient-2);}.cls-3{fill:url(#linear-gradient-3);}.cls-4{fill:url(#linear-gradient-4);}.cls-5{fill:url(#linear-gradient-5);}.cls-6{fill:url(#linear-gradient-6);}</style><linearGradient id="linear-gradient" y1="90.68" x2="147.11" y2="90.68" gradientUnits="userSpaceOnUse"><stop offset="0" stop-color="#81c5e8"/><stop offset="1" stop-color="#1b75bc"/></linearGradient><linearGradient id="linear-gradient-2" x1="131.31" y1="58.48" x2="157" y2="58.48" gradientUnits="userSpaceOnUse"><stop offset="0" stop-color="#fbba16"/><stop offset="1" stop-color="#f4d452"/></linearGradient><linearGradient id="linear-gradient-3" x1="120.09" y1="27.06" x2="140.93" y2="27.06" xlink:href="#linear-gradient-2"/><linearGradient id="linear-gradient-4" x1="93.37" y1="12.85" x2="100.27" y2="12.85" xlink:href="#linear-gradient-2"/><linearGradient id="linear-gradient-5" x1="52.23" y1="23.67" x2="73.22" y2="23.67" xlink:href="#linear-gradient-2"/><linearGradient id="linear-gradient-6" x1="74.93" y1="48.62" x2="125.37" y2="48.62" xlink:href="#linear-gradient-2"/></defs><title>icon</title><g id="Layer_2" data-name="Layer 2"><g id="Layer_1-2" data-name="Layer 1"><path class="cls-1" d="M.77,100.71A28.56,28.56,0,0,1,5.18,90.34a29.82,29.82,0,0,1,2.74-3.4A33,33,0,0,1,22,78.31a2.72,2.72,0,0,0,2.26-3c1.08-17.32,14.22-31.63,30.21-34,19-2.8,35.82,9.27,40.32,25.22.49,1.74,1,2.22,2.93,1.48,16.34-6.26,31.83,3.8,32.86,21.33a2.89,2.89,0,0,0,1.88,2.76c11.3,5.81,16.78,17.18,13.93,28.74-3.27,13.22-15,19.15-29.87,19.31q-39.24.4-78.81-.07c-7.43-.09-15.07,0-21.69-3.51C8.41,132.56,2.23,124.83.72,116.28A40.92,40.92,0,0,1,.77,100.71Z"/><path class="cls-2" d="M144.15,61.56c3.3,0,6.6,0,9.9,0,1.74,0,2.9-.85,3-3s-1.15-3.18-2.84-3.19q-10,0-20,0c-1.69,0-2.88,1-2.83,3.19s1.21,3,2.95,3C137.55,61.52,140.85,61.56,144.15,61.56Z"/><path class="cls-3" d="M133,29.53c2.33-2.33,4.63-4.7,7-7,1.25-1.21,1.37-2.74-.32-4.49s-3.38-1.76-4.58-.57q-7.12,7-14.16,14.16c-1.19,1.2-1.2,2.87.57,4.58s3.29,1.58,4.49.32C128.27,34.16,130.64,31.86,133,29.53Z"/><path class="cls-4" d="M100.13,12.89c0-3.3,0-6.6.13-9.9.05-1.74-.88-2.91-3.19-3S93.63,1.11,93.6,2.8q-.17,10-.23,20c0,1.69,1.09,2.89,3.41,2.87S100,24.52,100,22.79C100,19.49,100.09,16.19,100.13,12.89Z"/><path class="cls-5" d="M64.82,21.38c-2.43-2.23-4.89-4.43-7.29-6.7-1.26-1.2-2.72-1.32-4.23.25s-1.34,3.16-.1,4.31Q60.56,26,68,32.77c1.25,1.14,2.84,1.17,4.28-.48s1.18-3.08-.12-4.23C69.66,25.87,67.26,23.61,64.82,21.38Z"/><path class="cls-6" d="M74.93,38.18c6.73-7.77,22.06-9.9,33-4.6,12.49,6,19.5,19.7,16.9,33-1.17.15-1.83-.8-2.65-1.32a28.59,28.59,0,0,0-20.78-3.7c-1.5.26-2.64.65-3.49-1.23A40.47,40.47,0,0,0,75.59,38.78C75.33,38.68,75.15,38.39,74.93,38.18Z"/></g></g></svg>