<svg xmlns="http://www.w3.org/2000/svg" viewBox="0 0 43.6 39.05"><defs><style>.cls-1{fill:#bde6f5;}.cls-2{fill:#95cbe9;}</style></defs><title>icon_1</title><g id="Layer_2" data-name="Layer 2"><g id="Layer_1-2" data-name="Layer 1"><path class="cls-1" d="M40,17.11c.92,0,1.83,0,2.75,0a.74.74,0,0,0,.82-.83.76.76,0,0,0-.79-.89H37.25a.76.76,0,0,0-.79.89.74.74,0,0,0,.82.83C38.2,17.1,39.11,17.11,40,17.11Z"/><path class="cls-1" d="M36.92,8.21c.65-.65,1.29-1.31,1.95-1.94.35-.34.38-.76-.09-1.25s-.94-.49-1.27-.16q-2,2-3.94,3.94c-.33.33-.33.8.16,1.27s.91.44,1.25.09C35.62,9.5,36.27,8.86,36.92,8.21Z"/><path class="cls-1" d="M27.79,3.58c0-.92,0-1.83,0-2.75,0-.48-.25-.81-.89-.83s-1,.31-1,.78q0,2.78-.07,5.57c0,.47.3.8.95.8s.91-.33.91-.81C27.76,5.42,27.78,4.5,27.79,3.58Z"/><path class="cls-1" d="M18,5.94c-.68-.62-1.36-1.23-2-1.86a.75.75,0,0,0-1.17.07.77.77,0,0,0,0,1.2q2,1.89,4.1,3.76A.77.77,0,0,0,20,9,.75.75,0,0,0,20,7.8C19.32,7.19,18.65,6.56,18,5.94Z"/><path class="cls-2" d="M.18,28a7.59,7.59,0,0,1,1.59-3.38,8.7,8.7,0,0,1,3.36-2.5q.46-.2.94-.35a.76.76,0,0,0,.63-.82,10.18,10.18,0,0,1,8.4-9.45,10.1,10.1,0,0,1,11.21,7c.14.48.28.62.81.41a6.5,6.5,0,0,1,9.13,5.93.8.8,0,0,0,.52.77A7.05,7.05,0,0,1,33.52,39c-8.2,0-16.4,0-24.6,0a8.82,8.82,0,0,1-7.29-3.46A8.29,8.29,0,0,1,0,31.18,11.8,11.8,0,0,1,.18,28Z"/><path class="cls-1" d="M20.79,10.62C22.66,8.45,26.92,7.86,30,9.34a8.48,8.48,0,0,1,4.7,9.17c-.32,0-.51-.22-.74-.37a8,8,0,0,0-5.78-1c-.42.07-.74.18-1-.34a11.25,11.25,0,0,0-6.21-6C20.9,10.75,20.85,10.67,20.79,10.62Z"/></g></g></svg>